<svg xmlns="http://www.w3.org/2000/svg" width="100" height="100" viewBox="0 0 100 100"><defs><style>.a{fill:#3d37f1;}</style></defs><g transform="translate(-408 -12)"><path class="a" d="M469.622,13.359A50.179,50.179,0,0,0,458,12a50,50,0,0,0-40.662,79.1,8.266,8.266,0,1,0,2.992-2.531A45.64,45.64,0,0,1,411.906,62a46.135,46.135,0,0,1,56.811-44.841,1.953,1.953,0,1,0,.9-3.8ZM420.936,92.885a4.369,4.369,0,1,1,0,6.179,4.341,4.341,0,0,1,0-6.179Zm0,0"/><path class="a" d="M603.287,54.923a8.259,8.259,0,1,0-2.993,2.532,45.664,45.664,0,0,1,8.425,26.568,46.136,46.136,0,0,1-56.846,44.833,1.953,1.953,0,0,0-.908,3.8,50.24,50.24,0,0,0,11.661,1.367,50,50,0,0,0,40.662-79.1Zm-3.6-1.785a4.367,4.367,0,1,1,0-6.179,4.343,4.343,0,0,1,0,6.179Zm0,0" transform="translate(-104.625 -22.023)"/><path class="a" d="M526.465,367.925l-.04-.016a1.961,1.961,0,1,0,.04.016Zm0,0" transform="translate(-85.599 -263.12)"/><path class="a" d="M664.16,25.468l-.044-.017a1.953,1.953,0,0,0-1.455,3.624l.02.008a1.932,1.932,0,0,0,.739.146,1.954,1.954,0,0,0,.74-3.762Zm0,0" transform="translate(-187.436 -9.844)"/><path class="a" d="M513.564,106.369a13.793,13.793,0,0,0-2.538.234,25.124,25.124,0,0,0-50.015-.17,13.843,13.843,0,0,0,1.333,27.621h2.441a1.953,1.953,0,0,0,0-3.906h-2.441a9.936,9.936,0,0,1,0-19.873c.141,0,.283,0,.423.011.063,0,.127,0,.19,0s.1.015.154.019a9.944,9.944,0,0,1,6.258,2.881,1.953,1.953,0,0,0,2.762-2.762,13.851,13.851,0,0,0-7.213-3.81,21.218,21.218,0,0,1,42.309,2.318l0,.211a1.953,1.953,0,0,0,2.674,1.834,9.936,9.936,0,1,1,3.666,19.171H511.12a1.953,1.953,0,0,0,0,3.906h2.444a13.843,13.843,0,0,0,0-27.685Zm0,0" transform="translate(-29.953 -53.109)"/><path class="a" d="M564.475,165.6h-.132v-2.837a10.936,10.936,0,0,0-21.873,0V165.6h-.132A5.344,5.344,0,0,0,537,170.938v18.436a5.344,5.344,0,0,0,5.338,5.337h22.137a5.344,5.344,0,0,0,5.338-5.337V170.938a5.344,5.344,0,0,0-5.338-5.337Zm-18.1-2.837a7.03,7.03,0,0,1,14.06,0V165.6h-14.06Zm19.53,26.61a1.433,1.433,0,0,1-1.431,1.431H542.338a1.433,1.433,0,0,1-1.431-1.431V170.938a1.433,1.433,0,0,1,1.431-1.431h22.137a1.433,1.433,0,0,1,1.431,1.431Zm0,0" transform="translate(-95.406 -103.414)"/><path class="a" d="M588.247,239.507a5.618,5.618,0,1,0-8.532.044l-.944,3.921a1.954,1.954,0,0,0,1.9,2.41H587.3a1.954,1.954,0,0,0,1.9-2.41Zm-3.295-2.236a1.956,1.956,0,0,0-.768,2.05l.64,2.654h-1.674l.633-2.626a1.955,1.955,0,0,0-.79-2.064,1.711,1.711,0,1,1,2.682-1.41,1.7,1.7,0,0,1-.722,1.4Zm0,0" transform="translate(-125.984 -161.42)"/></g></svg>