<svg xmlns="http://www.w3.org/2000/svg" width="100.682" height="100.916" viewBox="0 0 100.682 100.916"><defs><style>.a{fill:#fff;}</style></defs><g transform="translate(-977.168 -430)"><path class="a" d="M1060.086,562.611l-3.821-11.463a11.554,11.554,0,0,0-8.894-7.712l-11.029-2.007v-.854a16.605,16.605,0,0,0,4.92-4.369h3.332a4.956,4.956,0,0,0,4.951-4.951v-19.8a21.453,21.453,0,1,0-42.906,0v11.552a6.614,6.614,0,0,0,5.262,6.465,16.536,16.536,0,0,0,7.94,11.106v.854l-11.029,2.007a11.55,11.55,0,0,0-8.892,7.712l-.661,1.982-5.62-5.621a1.653,1.653,0,0,1,0-2.335l6.518-6.517-12.235-12.235-7.367,7.367a11.552,11.552,0,0,0,0,16.336l22.3,22.3a11.547,11.547,0,0,0,16.284.049l8.038-7.365-2.506-2.5Zm-13.842-31.355a1.651,1.651,0,0,1-1.65,1.65h-1.388a16.357,16.357,0,0,0,1.077-3.437,6.541,6.541,0,0,0,1.962-.781Zm-1.65-5.41v-5.683a3.272,3.272,0,0,1,0,5.683Zm-33,0a3.272,3.272,0,0,1,0-5.683Zm0-11.093v1.885a6.543,6.543,0,0,0-1.65.683v-5.868a18.153,18.153,0,1,1,36.305,0v5.868a6.456,6.456,0,0,0-1.65-.683v-1.885h-1.65a18.153,18.153,0,0,1-12.919-5.352l-1.933-1.933-1.932,1.933a18.158,18.158,0,0,1-12.921,5.352Zm3.3,11.552v-8.314a21.4,21.4,0,0,0,13.2-5.865,21.4,21.4,0,0,0,13.2,5.865v8.314a13.1,13.1,0,0,1-1.786,6.6h-11.416v3.3h8.7a13.181,13.181,0,0,1-21.906-9.9Zm18.153,15.742v.078l-4.951,4.951-4.951-4.951v-.078a16.488,16.488,0,0,0,9.9,0Zm-29.994,10.144a8.254,8.254,0,0,1,6.352-5.51l11.536-2.1,7.156,7.157,7.156-7.155,11.534,2.1a8.246,8.246,0,0,1,6.352,5.509l2.376,7.118h-34.134l-6.428-6.428-7.141,6.461a1.686,1.686,0,0,1-2.334,0l-3.6-3.6Zm-15.128-21.1,7.568,7.568L993.7,540.45l-7.568-7.568Zm28.937,39.009a8.254,8.254,0,0,1-11.669,0l-22.3-22.3a8.253,8.253,0,0,1,0-11.669l.908-.908,7.568,7.568-.059.06a4.958,4.958,0,0,0,0,7l11.833,11.834a4.927,4.927,0,0,0,3.5,1.451,4.852,4.852,0,0,0,3.44-1.394l.123-.109,7.6,7.6Zm3.383-3.1-7.586-7.586,2.18-1.97,7.573,7.573Zm0,0" transform="translate(-0.003 -44.897)"/><path class="a" d="M1256.362,430h-23.1a4.957,4.957,0,0,0-4.951,4.951v13.2a4.957,4.957,0,0,0,4.951,4.951h4.408l-1.706,9.953,15.924-9.953h4.477a4.956,4.956,0,0,0,4.951-4.951v-13.2a4.956,4.956,0,0,0-4.951-4.951Zm1.65,18.153a1.653,1.653,0,0,1-1.65,1.65h-5.425l-10.481,6.549,1.124-6.549h-8.322a1.654,1.654,0,0,1-1.65-1.65v-13.2a1.654,1.654,0,0,1,1.65-1.65h23.1a1.653,1.653,0,0,1,1.65,1.65Zm0,0" transform="translate(-183.463 0)"/><rect class="a" width="19.803" height="3.301" transform="translate(1051.446 436.601)"/><rect class="a" width="13.202" height="3.301" transform="translate(1051.446 443.202)"/><rect class="a" width="3.3" height="3.301" transform="translate(1067.949 443.202)"/><path class="a" d="M1028.089,448a46.177,46.177,0,0,0-44.964,35.72L980,478.506l-2.83,1.7,5.8,9.665,9.665-5.8-1.7-2.83-4.472,2.684a42.917,42.917,0,0,1,54.34-30.708l.977-3.152A46.181,46.181,0,0,0,1028.089,448Zm0,0" transform="translate(0 -13.049)"/><path class="a" d="M1300.534,547.563l-9.666-5.8-5.8,9.667,2.83,1.7,2.888-4.814a42.945,42.945,0,0,1-7.273,40.882l2.562,2.08a46.219,46.219,0,0,0,7.909-43.792l4.849,2.91Zm0,0" transform="translate(-223.485 -81.838)"/></g></svg>