<svg xmlns="http://www.w3.org/2000/svg" width="105.424" height="120.518" viewBox="0 0 105.424 120.518"><defs><style>.a{fill:#efedee;}.b{fill:#cfc9cc;}.c{fill:#7e6f78;}.d{fill:#72ceed;}.e{fill:#14ade0;}.f{fill:#dfdbdd;}.g{fill:#f7e786;}.h{fill:#f2d835;}</style></defs><g transform="translate(-82 -140)"><path class="a" d="M176.308,190.912a43.4,43.4,0,1,1-43.4-43.4,43.4,43.4,0,0,1,43.4,43.4Zm0,0" transform="translate(-5.747 -5.747)"/><path class="b" d="M142.346,246.422A43.394,43.394,0,0,1,110.8,173.23a43.4,43.4,0,1,0,53.661,67.139,43.187,43.187,0,0,1-22.113,6.053Zm0,0" transform="translate(-5.747 -25.408)"/><path class="c" d="M218.728,252.2A24.528,24.528,0,1,1,194.2,227.672,24.528,24.528,0,0,1,218.728,252.2Zm0,0" transform="translate(-67.035 -67.035)"/><path class="d" d="M235.7,276.715a16.981,16.981,0,1,1-16.981-16.981A16.981,16.981,0,0,1,235.7,276.715Zm0,0" transform="translate(-91.55 -91.55)"/><path class="e" d="M226.262,291.605A16.98,16.98,0,0,1,212.7,264.4a16.981,16.981,0,1,0,19.57,26.1,16.933,16.933,0,0,1-6.012,1.1Zm0,0" transform="translate(-91.55 -95.119)"/><rect class="f" width="11.321" height="20.755" transform="translate(121.505 228.561)"/><path class="c" d="M211.65,561.168v10.178H189.008V561.168a22.632,22.632,0,0,0-11.32,19.612H222.97a22.632,22.632,0,0,0-11.32-19.612Zm0,0" transform="translate(-73.164 -322.03)"/><path class="a" d="M289.438,303.586a3.773,3.773,0,1,1-3.773-3.774,3.773,3.773,0,0,1,3.773,3.774Zm0,0" transform="translate(-152.839 -122.194)"/><path class="g" d="M399.782,414.868A18.868,18.868,0,1,1,380.915,396a18.867,18.867,0,0,1,18.868,18.868Zm0,0" transform="translate(-214.127 -195.741)"/><path class="h" d="M386.575,434.929A18.863,18.863,0,0,1,373.468,402.5a18.868,18.868,0,1,0,20.554,30.9,18.8,18.8,0,0,1-7.447,1.529Zm0,0" transform="translate(-214.127 -200.708)"/><path d="M188.453,220.156a26.229,26.229,0,0,0-14,4.031,1.769,1.769,0,0,0,1.886,2.994,22.769,22.769,0,1,1-5.655,5.047,1.769,1.769,0,0,0-2.76-2.213,26.3,26.3,0,1,0,20.527-9.859Zm0,0" transform="translate(-61.288 -61.288)"/><path d="M212.969,289.719a18.75,18.75,0,1,0-18.75-18.75,18.771,18.771,0,0,0,18.75,18.75Zm0-33.962a15.212,15.212,0,1,1-15.212,15.212,15.229,15.229,0,0,1,15.212-15.212Zm0,0" transform="translate(-85.804 -85.804)"/><path d="M279.918,303.382a5.543,5.543,0,1,0-5.543-5.543,5.549,5.549,0,0,0,5.543,5.543Zm0-7.547a2,2,0,1,1-2,2,2.007,2.007,0,0,1,2-2Zm0,0" transform="translate(-147.092 -116.448)"/><path d="M170.238,198.781a45.17,45.17,0,1,0-50.5,30.935V240h-2.122a3.718,3.718,0,0,0-.175-1.626,1.786,1.786,0,0,0-2.48-.767,24.5,24.5,0,0,0-12.2,21.143,1.769,1.769,0,0,0,1.769,1.769h45.282a1.769,1.769,0,0,0,1.769-1.769,24.5,24.5,0,0,0-12.2-21.143,1.786,1.786,0,0,0-2.48.767,3.7,3.7,0,0,0-.175,1.626h-2.122V229.71a45.152,45.152,0,0,0,12.612-4.065,20.637,20.637,0,1,0,23.032-26.865Zm-50.5,44.757v4.009h-2.122v-4.009Zm28.226,13.443H106.368a20.986,20.986,0,0,1,7.707-14.487v6.822a1.769,1.769,0,0,0,1.769,1.769h22.641a1.769,1.769,0,0,0,1.769-1.769v-6.822a20.986,20.986,0,0,1,7.707,14.487Zm-11.245-13.443v4.009h-2.122v-4.009Zm-5.66-13.207v17.216h-7.782V230.33Zm-3.891-3.538a41.591,41.591,0,1,1,39.446-28.3A20.633,20.633,0,0,0,146.366,222.1a41.692,41.692,0,0,1-19.2,4.688Zm39.622,9.434a17.1,17.1,0,1,1,17.1-17.1,17.118,17.118,0,0,1-17.1,17.1Zm0,0"/><path d="M424.614,465.7a13.116,13.116,0,0,0-13.092,0,1.769,1.769,0,1,0,1.77,3.063,9.568,9.568,0,0,1,9.552,0,1.769,1.769,0,1,0,1.77-3.063Zm0,0" transform="translate(-251.281 -247.697)"/><path d="M414.475,435.152a20.651,20.651,0,0,0-22.321,0,1.769,1.769,0,1,0,1.915,2.974,17.108,17.108,0,0,1,18.491,0,1.769,1.769,0,0,0,1.915-2.975Zm0,0" transform="translate(-236.527 -223.173)"/><path d="M427.789,496.008a5.5,5.5,0,0,0-3.919,1.624,1.767,1.767,0,0,0,0,2.5,1.785,1.785,0,0,0,2.5,0,2,2,0,0,1,2.835,0,1.769,1.769,0,0,0,2.5-2.5,5.507,5.507,0,0,0-3.919-1.623Zm0,0" transform="translate(-261.002 -272.208)"/></g></svg>