<svg xmlns="http://www.w3.org/2000/svg" width="113.383" height="101.868" viewBox="0 0 113.383 101.868"><defs><style>.a{fill:#63cef7;}.b{fill:#f2f2fc;}.c{fill:#61729b;}.d{fill:#ffb954;}</style></defs><g transform="translate(-50 -166)"><path class="a" d="M168.954,180.429v79.723a4.428,4.428,0,0,1-4.429,4.429H64.429A4.428,4.428,0,0,1,60,260.152V180.429A4.428,4.428,0,0,1,64.429,176h100.1a4.428,4.428,0,0,1,4.429,4.429Zm0,0" transform="translate(-7.785 -7.785)"/><rect class="b" width="86.809" height="70.865" transform="translate(65.502 177.073)"/><rect class="c" width="17.716" height="8.858" transform="translate(134.595 256.795)"/><path class="d" d="M250.29,298.145A22.145,22.145,0,1,1,228.145,276a22.146,22.146,0,0,1,22.145,22.145Zm0,0" transform="translate(-121.454 -85.64)"/><rect class="c" width="17.716" height="8.858" transform="translate(61.073 256.795)"/><path class="c" d="M108.858,416v17.716H100V416Zm0,0" transform="translate(-38.927 -194.637)"/><path class="c" d="M108.858,256v17.716H100V256Zm0,0" transform="translate(-38.927 -70.069)"/><path d="M464.214,430.429A2.214,2.214,0,1,0,462,428.214a2.215,2.215,0,0,0,2.214,2.214Zm0,0" transform="translate(-320.762 -202.423)"/><path d="M156.74,166H56.644A6.651,6.651,0,0,0,50,172.644v79.723a6.651,6.651,0,0,0,6.644,6.644h2.215v6.644a2.214,2.214,0,0,0,2.215,2.215H78.789A2.214,2.214,0,0,0,81,265.653V259.01H132.38v6.644a2.214,2.214,0,0,0,2.215,2.215h17.716a2.214,2.214,0,0,0,2.215-2.215V259.01h2.215a6.651,6.651,0,0,0,6.644-6.644V172.644A6.651,6.651,0,0,0,156.74,166ZM76.574,263.439H63.287V259.01H76.574Zm73.522,0H136.809V259.01H150.1Zm8.858-11.073a2.216,2.216,0,0,1-2.215,2.215H56.644a2.216,2.216,0,0,1-2.215-2.215V172.644a2.216,2.216,0,0,1,2.215-2.215h100.1a2.216,2.216,0,0,1,2.215,2.215Zm0,0"/><path d="M183.453,206H96.644a2.214,2.214,0,0,0-2.215,2.215v6.644H92.215A2.214,2.214,0,0,0,90,217.073v17.716A2.214,2.214,0,0,0,92.215,237h2.215V250.29H92.215A2.214,2.214,0,0,0,90,252.5v17.716a2.214,2.214,0,0,0,2.215,2.215h2.215v6.644a2.214,2.214,0,0,0,2.215,2.214h86.809a2.214,2.214,0,0,0,2.215-2.214V208.215A2.214,2.214,0,0,0,183.453,206ZM94.429,219.287h4.429v13.287H94.429Zm0,35.432h4.429v13.287H94.429Zm86.809,22.145H98.858v-4.429h2.215a2.214,2.214,0,0,0,2.215-2.215V252.5a2.214,2.214,0,0,0-2.215-2.215H98.858V237h2.215a2.214,2.214,0,0,0,2.215-2.215V217.073a2.214,2.214,0,0,0-2.215-2.215H98.858v-4.429h82.38Zm0,0" transform="translate(-31.142 -31.142)"/><path d="M220.36,314.719A24.36,24.36,0,1,0,196,290.36a24.388,24.388,0,0,0,24.36,24.36Zm0-44.29a19.931,19.931,0,1,1-19.931,19.931,19.953,19.953,0,0,1,19.931-19.931Zm0,0" transform="translate(-113.668 -77.855)"/><path d="M282.145,328.145a4.007,4.007,0,0,1-2.875-1.676,2.215,2.215,0,1,0-3.39,2.85,9.18,9.18,0,0,0,4.051,2.884v2.585a2.215,2.215,0,1,0,4.429,0v-2.6a6.643,6.643,0,0,0-2.215-12.906,2.215,2.215,0,1,1,0-4.429,3.558,3.558,0,0,1,2.4,1.158,2.214,2.214,0,0,0,3.08-3.183,8.549,8.549,0,0,0-3.26-2.039v-2.579a2.215,2.215,0,1,0-4.429,0v2.6a6.643,6.643,0,0,0,2.215,12.906,2.215,2.215,0,1,1,0,4.429Zm0,0" transform="translate(-175.453 -108.997)"/><path d="M464.214,328.145a2.214,2.214,0,0,0,2.215-2.215V308.215a2.215,2.215,0,1,0-4.429,0v17.716a2.214,2.214,0,0,0,2.214,2.215Zm0,0" transform="translate(-320.762 -108.997)"/></g></svg>