<svg xmlns="http://www.w3.org/2000/svg" width="100.593" height="100.595" viewBox="0 0 100.593 100.595"><defs><style>.a{fill:#3d37f1;}</style></defs><g transform="translate(-873.961 -31.828)"><path class="a" d="M954.345,223.911a1.963,1.963,0,1,0,.576,1.39,1.977,1.977,0,0,0-.576-1.39Zm0,0" transform="translate(-56.852 -141.339)"/><path class="a" d="M990.479,223.336h-1.7a1.965,1.965,0,0,0,0,3.93h1.7a1.965,1.965,0,0,0,0-3.93Zm0,0" transform="translate(-83.288 -141.339)"/><path class="a" d="M1025.991,223.911a1.965,1.965,0,1,0,.575,1.39,1.983,1.983,0,0,0-.575-1.39Zm0,0" transform="translate(-109.728 -141.339)"/><path class="a" d="M1061.81,223.911a1.963,1.963,0,1,0,.576,1.39,1.979,1.979,0,0,0-.576-1.39Zm0,0" transform="translate(-136.164 -141.339)"/><path class="a" d="M1097.63,223.911a1.963,1.963,0,1,0,.576,1.39,1.978,1.978,0,0,0-.576-1.39Zm0,0" transform="translate(-162.601 -141.339)"/><path class="a" d="M1133.453,223.911a1.968,1.968,0,1,0,.574,1.39,1.983,1.983,0,0,0-.574-1.39Zm0,0" transform="translate(-189.038 -141.339)"/><path class="a" d="M1169.277,223.911a1.966,1.966,0,1,0,.575,1.39,1.984,1.984,0,0,0-.575-1.39Zm0,0" transform="translate(-215.477 -141.339)"/><path class="a" d="M917.974,261.457h-1.552a1.965,1.965,0,0,0,0,3.93h1.552a1.965,1.965,0,1,0,0-3.93Zm0,0" transform="translate(-29.887 -169.474)"/><path class="a" d="M959.762,261.457h-1.551a1.965,1.965,0,0,0,0,3.93h1.551a1.965,1.965,0,0,0,0-3.93Zm0,0" transform="translate(-60.729 -169.474)"/><path class="a" d="M995.526,262.033a1.971,1.971,0,1,0,.573,1.389,1.987,1.987,0,0,0-.573-1.389Zm0,0" transform="translate(-87.244 -169.474)"/><path class="a" d="M1031.811,262.033a1.964,1.964,0,1,0,.576,1.389,1.981,1.981,0,0,0-.576-1.389Zm0,0" transform="translate(-114.023 -169.474)"/><path class="a" d="M960.591,298.153a1.963,1.963,0,1,0,.576,1.39,1.979,1.979,0,0,0-.576-1.39Zm0,0" transform="translate(-61.461 -196.132)"/><path class="a" d="M996.884,298.153a1.968,1.968,0,1,0,.574,1.39,1.983,1.983,0,0,0-.574-1.39Zm0,0" transform="translate(-88.247 -196.132)"/><path class="a" d="M1079.361,261.457h-3.932a1.965,1.965,0,0,0,0,3.93h3.932a1.965,1.965,0,0,0,0-3.93Zm0,0" transform="translate(-147.241 -169.474)"/><path class="a" d="M1046.847,297.578h-10.675a1.965,1.965,0,1,0,0,3.929h10.675a1.965,1.965,0,1,0,0-3.929Zm0,0" transform="translate(-118.267 -196.132)"/><path class="a" d="M1199.978,261.457H1198.4a1.965,1.965,0,0,0,0,3.93h1.576a1.965,1.965,0,0,0,0-3.93Zm0,0" transform="translate(-237.998 -169.474)"/><path class="a" d="M1022.06,72.908a1.962,1.962,0,1,0,.576,1.389,1.98,1.98,0,0,0-.576-1.389Zm0,0" transform="translate(-106.827 -29.893)"/><path class="a" d="M963.982,100.035H926.21a1.81,1.81,0,0,0,.012-.211V91.916a3.078,3.078,0,0,1,3.074-3.075h7.675a8.254,8.254,0,0,0,0-16.509H921.31a1.965,1.965,0,0,0,0,3.929h15.661a4.325,4.325,0,1,1,0,8.651H929.3a7.011,7.011,0,0,0-7,7v7.908a2.071,2.071,0,0,0,.011.211H884.533a10.615,10.615,0,0,0-10.572,10.634v23.393a10.583,10.583,0,0,0,10.572,10.572h37.3a1.965,1.965,0,0,0,0-3.929h-37.3a6.649,6.649,0,0,1-6.642-6.642V110.668a6.681,6.681,0,0,1,6.642-6.7h79.45a6.68,6.68,0,0,1,6.642,6.7v23.394a6.653,6.653,0,0,1-4.715,6.357v-2.875a5.5,5.5,0,0,0-7.357-5.184,5.5,5.5,0,0,0-6.806-3.558v-1.419a5.505,5.505,0,0,0-11.011,0V128.8a5.5,5.5,0,0,0-7.081,5.274v4.731a9,9,0,0,0-5.075-1.562,1.965,1.965,0,0,0-1.965,1.965v13.539a14.26,14.26,0,0,0,3.074,8.824,1.965,1.965,0,0,0,3.079-2.442,10.316,10.316,0,0,1-2.224-6.382V141.566a5.13,5.13,0,0,1,3.11,4.1v1.219a1.965,1.965,0,0,0,1.965,1.965h.042a1.965,1.965,0,0,0,1.965-1.965v-.589c0-.291-.015-.578-.042-.863V134.075a1.576,1.576,0,0,1,3.152,0v12.8a1.965,1.965,0,1,0,3.93,0v-19.5a1.576,1.576,0,0,1,3.152,0v19.5a1.965,1.965,0,1,0,3.93,0v-12.8a1.576,1.576,0,0,1,3.152,0v12.8a1.965,1.965,0,1,0,3.93,0v-9.337a1.576,1.576,0,1,1,3.152,0v22.808a1.965,1.965,0,0,0,3.93,0v-15.9a10.587,10.587,0,0,0,8.645-10.392V110.668a10.614,10.614,0,0,0-10.572-10.633Zm0,0" transform="translate(0 -29.893)"/><path class="a" d="M906.575,31.828H875.926a1.965,1.965,0,0,0-1.965,1.965V65.229a1.965,1.965,0,0,0,1.965,1.965h30.649a1.964,1.964,0,0,0,1.965-1.965V33.793a1.964,1.964,0,0,0-1.965-1.965ZM904.61,63.264h-26.72V35.757h26.72Zm0,0" transform="translate(0)"/><path class="a" d="M922.54,121.816H909.461a1.965,1.965,0,1,0,0,3.929H922.54a1.965,1.965,0,0,0,0-3.929Zm0,0" transform="translate(-24.75 -66.414)"/><path class="a" d="M922.54,91.828H909.461a1.965,1.965,0,1,0,0,3.929H922.54a1.965,1.965,0,0,0,0-3.929Zm0,0" transform="translate(-24.75 -44.282)"/><path class="a" d="M922.54,61.832H909.461a1.965,1.965,0,1,0,0,3.93H922.54a1.965,1.965,0,0,0,0-3.93Zm0,0" transform="translate(-24.75 -22.144)"/></g></svg>