<svg xmlns="http://www.w3.org/2000/svg" xmlns:xlink="http://www.w3.org/1999/xlink" width="100.775" height="99" viewBox="0 0 100.775 99"><defs><style>.a{fill:#3d37f1;}.b{clip-path:url(#a);}</style><clipPath id="a"><rect class="a" width="100.775" height="99"/></clipPath></defs><g transform="translate(-439.992 -312.578)"><path class="a" d="M606.958,533.969a29.954,29.954,0,0,0-21.317,8.829,1.477,1.477,0,0,0,2.088,2.088,27.192,27.192,0,0,1,38.458,0,1.477,1.477,0,0,0,2.088-2.088,29.951,29.951,0,0,0-21.317-8.829Zm0,0" transform="translate(-116.579 -177.73)"/><path class="a" d="M633.42,580.582a20.818,20.818,0,0,0-14.816,6.137,1.476,1.476,0,1,0,2.087,2.088,18,18,0,0,1,25.458,0,1.476,1.476,0,1,0,2.087-2.088,20.816,20.816,0,0,0-14.815-6.137Zm0,0" transform="translate(-143.041 -215.151)"/><g transform="translate(439.992 312.578)"><g class="b" transform="translate(0 0)"><path class="a" d="M652.676,632.146a1.476,1.476,0,0,0,2.087,2.087,8.511,8.511,0,0,1,12.019,0,1.476,1.476,0,0,0,2.087-2.087,11.462,11.462,0,0,0-16.193,0Zm0,0" transform="translate(-610.385 -566.435)"/><path class="a" d="M540.766,362.246a50.416,50.416,0,0,0-100.772,0,2.414,2.414,0,0,0,2.413,2.5,9.9,9.9,0,0,0,1.206-.073l3.108,18.814v17.321a5.151,5.151,0,0,0,5.145,5.146h.891v1.45a4.938,4.938,0,0,0,4.932,4.932h5.993a4.938,4.938,0,0,0,4.932-4.932V379.2a4.938,4.938,0,0,0-4.932-4.933h-5.993a4.938,4.938,0,0,0-4.932,4.933v1.449h-.89a5.115,5.115,0,0,0-2.513.656l-2.88-17.43a10.1,10.1,0,0,0,5.787-7.308,38.838,38.838,0,0,1,76.239,0,10.1,10.1,0,0,0,5.838,7.331l-2.926,17.41a5.108,5.108,0,0,0-2.518-.659H528V379.2a4.938,4.938,0,0,0-4.932-4.933h-5.994a4.938,4.938,0,0,0-4.932,4.933v28.2a4.937,4.937,0,0,0,4.932,4.932h5.994A4.938,4.938,0,0,0,528,407.4v-1.45h.89a5.151,5.151,0,0,0,5.145-5.146V383.486l3.161-18.809a9.811,9.811,0,0,0,1.152.067,2.414,2.414,0,0,0,2.413-2.5Zm-91.094,33.837V385.8a2.2,2.2,0,0,1,2.194-2.193h.89v6.212a1.476,1.476,0,1,0,2.952,0V379.2a1.983,1.983,0,0,1,1.98-1.981h5.993a1.983,1.983,0,0,1,1.98,1.981v28.2a1.982,1.982,0,0,1-1.98,1.98h-5.993a1.982,1.982,0,0,1-1.98-1.98V396.752a1.476,1.476,0,1,0-2.952,0V403h-.89a2.2,2.2,0,0,1-2.194-2.194Zm81.415,0v4.722A2.2,2.2,0,0,1,528.894,403H528v-6.264a1.476,1.476,0,1,0-2.952,0V407.4a1.982,1.982,0,0,1-1.98,1.98h-5.994a1.982,1.982,0,0,1-1.98-1.98V379.2a1.982,1.982,0,0,1,1.98-1.981h5.994a1.982,1.982,0,0,1,1.98,1.981v10.666a1.476,1.476,0,0,0,2.952,0V383.6h.89a2.2,2.2,0,0,1,2.193,2.194Zm.312-40.073a41.791,41.791,0,0,0-82.038,0,7.117,7.117,0,0,1-6.393,5.759,47.464,47.464,0,0,1,94.825,0,7.118,7.118,0,0,1-6.393-5.759Zm0,0" transform="translate(-439.993 -313.371)"/></g></g></g></svg>