<svg xmlns="http://www.w3.org/2000/svg" xmlns:xlink="http://www.w3.org/1999/xlink" width="119.909" height="119.909" viewBox="0 0 119.909 119.909"><defs><style>.a{fill:none;}.b{fill:#72d8ff;}.c{fill:#6a80ff;}.d{fill:#ffb954;}.e{fill:#ade5ff;}.f{fill:#2e9de3;}.g{fill:#feda9b;}.h{fill:#ffc66c;}.i{clip-path:url(#a);}</style><clipPath id="a"><rect class="a" width="119.909" height="119.909"/></clipPath></defs><g transform="translate(-50 -140)"><path class="b" d="M430.6,307.582H419.121A11.12,11.12,0,0,0,408,318.7v19.1a6.709,6.709,0,0,0,6.709,6.71h20.306a6.709,6.709,0,0,0,6.709-6.71V318.7a11.12,11.12,0,0,0-11.12-11.12Zm0,0" transform="translate(-274.157 -128.335)"/><rect class="c" width="16.256" height="55.323" transform="translate(57.5 173.531)"/><path class="c" d="M73.285,433.547A13.285,13.285,0,0,0,60,446.832v35.526H86.571V446.832a13.285,13.285,0,0,0-13.286-13.285Zm0,0" transform="translate(-7.658 -224.799)"/><rect class="d" width="16.862" height="41.384" transform="translate(142.274 216.175)"/><path class="c" d="M233.6,157.8l17,17a4.885,4.885,0,1,1-6.908,6.908l-12.551-12.552Zm0,0" transform="translate(-138.715 -13.629)"/><path class="c" d="M114.973,172.615l20.8-20.8a6.277,6.277,0,0,1,8.877,8.878l-20.719,20.719Zm0,0" transform="translate(-49.756 -7.642)"/><path class="e" d="M208.608,156.22a6.255,6.255,0,1,1-6.256-6.255,6.255,6.255,0,0,1,6.256,6.255Zm0,0" transform="translate(-111.882 -7.631)"/><path class="e" d="M98.279,256.6a8.128,8.128,0,1,1-8.128-8.128,8.128,8.128,0,0,1,8.128,8.128Zm0,0" transform="translate(-24.523 -83.066)"/><path class="e" d="M103.968,470.879a5.621,5.621,0,1,1-5.621-5.621,5.62,5.62,0,0,1,5.621,5.621Zm0,0" transform="translate(-32.72 -249.083)"/><path class="f" d="M203.393,449.941H132.2a8.2,8.2,0,1,1,0-16.394h71.2a8.2,8.2,0,1,1,0,16.394Zm0,0" transform="translate(-56.669 -224.799)"/><path class="g" d="M453.963,264.386A7.962,7.962,0,0,1,446,256.423v-5.251h15.925v5.251a7.963,7.963,0,0,1-7.963,7.963Zm0,0" transform="translate(-303.258 -85.136)"/><path class="h" d="M448.928,207.5a9.5,9.5,0,0,0-9.5,9.5v.726h19V217a9.5,9.5,0,0,0-9.5-9.5Zm0,0" transform="translate(-298.223 -51.689)"/><rect class="d" width="16.862" height="16.862" transform="translate(86.871 191.886)"/><rect class="d" width="16.862" height="16.862" transform="translate(117.917 191.886)"/><g transform="translate(50 140)"><g class="i"><rect class="e" width="63.361" height="32.417" transform="translate(28.913 85.142)"/><path d="M159.152,177.179a10.251,10.251,0,0,0,1.857-5.891v-3.054a2.343,2.343,0,0,0,1.54-2.2v-.726a11.844,11.844,0,1,0-23.689,0v.726a2.343,2.343,0,0,0,1.54,2.2v3.054a10.246,10.246,0,0,0,1.857,5.891,13.488,13.488,0,0,0-10.729,12.365H117.917a2.342,2.342,0,0,0-2.342,2.342v14.52h-9.5v-14.52a2.342,2.342,0,0,0-2.342-2.342H86.871a2.342,2.342,0,0,0-2.342,2.342v14.52H76.1V175.159l16.324-16.324,10.9,10.895a7.174,7.174,0,0,0,3.007,1.8v3.955l-4.9,4.9a2.342,2.342,0,0,0-.686,1.656v4.325a2.342,2.342,0,1,0,4.684,0v-3.355l3.239-3.239,3.239,3.239v3a2.342,2.342,0,1,0,4.684,0v-3.974a2.342,2.342,0,0,0-.686-1.656l-4.9-4.9v-4.12a7.223,7.223,0,0,0,2.529-11.856l-17-17-.013-.011a8.63,8.63,0,0,0-12.17.018L63.621,163.256a10.487,10.487,0,0,0-8.463,10.275v12.129a2.342,2.342,0,1,0,4.684,0v-3.41a10.439,10.439,0,0,0,11.572,0v24.992c-.111.047-.219.1-.328.147a15.6,15.6,0,0,0-11.244.13v-4.53a2.342,2.342,0,1,0-4.684,0v7.451A15.594,15.594,0,0,0,50,222.033v35.526a2.343,2.343,0,0,0,2.342,2.342H159.136a2.343,2.343,0,0,0,2.342-2.342V218.493a9.061,9.061,0,0,0,8.431-9.028v-19.1a13.484,13.484,0,0,0-10.757-13.188Zm-8.574-.274a5.627,5.627,0,0,1-5.495-5.618v-2.91h11.241v2.91a5.627,5.627,0,0,1-5.495,5.618Zm7.1-13.212h-4.635v-5.15a7.191,7.191,0,0,1,4.635,5.15Zm-9.318-5.15v5.15h-4.635a7.191,7.191,0,0,1,4.635-5.15Zm-1.639,52.546a5.855,5.855,0,1,1,0,11.71h-71.2a5.855,5.855,0,0,1,0-11.71Zm-2.108,16.394h2.108a10.652,10.652,0,0,0,1.639-.128v27.861h-3.747Zm-79.5-8.922a10.5,10.5,0,0,0,2.764,5.62,3.278,3.278,0,1,1-2.764-5.62Zm55.146-24.334h12.178v12.178H120.259Zm-31.047,0h12.178v12.178H89.213Zm-4.821-39.559a8.552,8.552,0,0,0,3.461,2.111l-12.61,12.61a10.531,10.531,0,0,0-5.6-5.528l12.649-12.648a8.546,8.546,0,0,0,2.1,3.454Zm26.579,9.951a2.543,2.543,0,0,1-4.341,1.8l-10.9-10.895.814-.813a8.593,8.593,0,0,0,2.112-3.453l11.565,11.566a2.527,2.527,0,0,1,.746,1.8ZM93.235,145.832a3.927,3.927,0,0,1,.188,5.358,2.431,2.431,0,0,0-.185.166,3.913,3.913,0,1,1-5.535-5.534c.036-.036.068-.073.1-.111a3.936,3.936,0,0,1,5.431.121ZM65.627,179.317a5.786,5.786,0,1,1,5.786-5.785,5.792,5.792,0,0,1-5.786,5.785ZM54.684,222.033A10.955,10.955,0,0,1,65.627,211.09q.558,0,1.106.056a10.488,10.488,0,0,0-1.276,2.691,7.961,7.961,0,1,0,6.359,12.97,10.48,10.48,0,0,0,3.712.677h1.044v27.732H54.684Zm85.248,33.184H81.255V238.726h27.411a2.342,2.342,0,1,0,0-4.684H81.255v-6.558h58.677Zm13.115,0V225.371a10.58,10.58,0,0,0,3.747-5.316v35.163Zm12.178-45.752a4.372,4.372,0,0,1-3.747,4.319V193.872a2.342,2.342,0,0,0-4.684,0v19.964a10.559,10.559,0,0,0-10.07-7.429h-2.108V193.872a2.342,2.342,0,0,0-4.684,0v12.534h-2.81v-14.52a2.336,2.336,0,0,0-.928-1.864,8.787,8.787,0,0,1,8.77-8.433h5.615l.126,0,.126,0h5.616a8.787,8.787,0,0,1,8.778,8.778Zm0,0" transform="translate(-50 -140)"/></g></g><path d="M74.362,369.649a2.344,2.344,0,1,0-1.656-.687,2.358,2.358,0,0,0,1.656.687Zm0,0" transform="translate(-16.863 -172.279)"/><path d="M109.072,273.172a2.342,2.342,0,1,0,1.656.686,2.356,2.356,0,0,0-1.656-.686Zm0,0" transform="translate(-43.444 -101.983)"/><path d="M213.493,170.67a2.346,2.346,0,1,0-.684-1.656,2.362,2.362,0,0,0,.684,1.656Zm0,0" transform="translate(-124.68 -20.425)"/><path d="M244.342,458.543a2.343,2.343,0,1,0,1.656.686,2.36,2.36,0,0,0-1.656-.686Zm0,0" transform="translate(-147.034 -243.941)"/><path d="M180.342,458.543a2.343,2.343,0,1,0,1.656.686,2.36,2.36,0,0,0-1.656-.686Zm0,0" transform="translate(-98.023 -243.941)"/><path d="M436.342,463.227a2.343,2.343,0,1,0-1.656-.686,2.353,2.353,0,0,0,1.656.686Zm0,0" transform="translate(-294.068 -243.941)"/><path d="M308.342,458.543a2.343,2.343,0,1,0,1.656.686,2.36,2.36,0,0,0-1.656-.686Zm0,0" transform="translate(-196.045 -243.941)"/><path d="M372.342,458.543a2.343,2.343,0,1,0,1.656.686,2.36,2.36,0,0,0-1.656-.686Zm0,0" transform="translate(-245.057 -243.941)"/><path d="M331.24,546.227a2.343,2.343,0,1,0-1.656-.686,2.352,2.352,0,0,0,1.656.686Zm0,0" transform="translate(-213.581 -307.503)"/></g></svg>