<svg xmlns="http://www.w3.org/2000/svg" width="100.387" height="100.387" viewBox="0 0 100.387 100.387"><defs><style>.a{fill:#3d37f1;}</style></defs><g transform="translate(-36 -23.828)"><path class="a" d="M128.858,114.176a7.529,7.529,0,0,0,7.529-7.529V31.357a7.529,7.529,0,0,0-7.529-7.529H43.529A7.529,7.529,0,0,0,36,31.357v75.29a7.529,7.529,0,0,0,7.529,7.529h7.529V119.2H46.039v5.019H61.1V119.2H56.077v-5.019H116.31V119.2H111.29v5.019h15.058V119.2h-5.019v-5.019ZM91.213,86.57a12.548,12.548,0,1,1,12.548,12.548A12.549,12.549,0,0,1,91.213,86.57Zm28.4,7.529h6.738V89.08h-5.22a15.738,15.738,0,0,0,0-5.019h5.22V79.041H119.61a17.631,17.631,0,0,0-3.578-5.019h10.317V69H76.155v5.019H91.491a17.631,17.631,0,0,0-3.578,5.019H76.155V84.06h10.24a15.738,15.738,0,0,0,0,5.019H76.155V94.1H87.913a17.631,17.631,0,0,0,3.578,5.019H46.039A5.02,5.02,0,0,1,41.019,94.1V69a5.02,5.02,0,0,1,5.019-5.019h80.31A5.02,5.02,0,0,1,131.368,69V94.1a5.02,5.02,0,0,1-5.019,5.019H116.031A17.631,17.631,0,0,0,119.61,94.1ZM43.529,28.847h85.329a2.51,2.51,0,0,1,2.51,2.51v29a9.932,9.932,0,0,0-5.019-1.4H46.039a9.933,9.933,0,0,0-5.019,1.4v-29a2.51,2.51,0,0,1,2.51-2.51Zm-2.51,77.8v-3.905a9.933,9.933,0,0,0,5.019,1.4h80.31a9.933,9.933,0,0,0,5.019-1.4v3.905a2.51,2.51,0,0,1-2.51,2.51H43.529a2.51,2.51,0,0,1-2.51-2.51Zm0,0"/><path class="a" d="M235.529,199.828a7.529,7.529,0,1,0,7.529,7.529,7.529,7.529,0,0,0-7.529-7.529Zm0,10.039a2.51,2.51,0,1,1,2.51-2.51,2.51,2.51,0,0,1-2.51,2.51Zm0,0" transform="translate(-131.768 -120.787)"/><rect class="a" width="15.058" height="5.019" transform="translate(46.039 79.041)"/><rect class="a" width="15.058" height="5.019" transform="translate(46.039 89.08)"/><rect class="a" width="5.019" height="5.019" transform="translate(66.116 89.08)"/><rect class="a" width="5.019" height="5.019" transform="translate(66.116 79.041)"/><rect class="a" width="15.058" height="5.019" transform="translate(46.039 69.002)"/><rect class="a" width="5.019" height="5.019" transform="translate(66.116 69.002)"/><rect class="a" width="15.058" height="5.019" transform="translate(91.213 48.925)"/><rect class="a" width="5.019" height="5.019" transform="translate(111.29 48.925)"/></g></svg>