<svg xmlns="http://www.w3.org/2000/svg" xmlns:xlink="http://www.w3.org/1999/xlink" width="100.195" height="100.461" viewBox="0 0 100.195 100.461"><defs><style>.a{fill:#3d37f1;}.b{clip-path:url(#a);}</style><clipPath id="a"><rect class="a" width="100.195" height="100.461"/></clipPath></defs><g transform="translate(-22 -400.96)"><path class="a" d="M147.664,515.921H117.685a11.671,11.671,0,0,0-11.658,11.658V540.9a11.671,11.671,0,0,0,11.658,11.658h29.978A11.673,11.673,0,0,0,159.322,540.9V527.579a11.672,11.672,0,0,0-11.658-11.658Zm8.327,24.982a8.338,8.338,0,0,1-8.327,8.327H117.685a8.338,8.338,0,0,1-8.327-8.327V527.579a8.337,8.337,0,0,1,8.327-8.327h29.978a8.337,8.337,0,0,1,8.327,8.327Zm0,0" transform="translate(-60.703 -83.05)"/><path class="a" d="M191.77,550.721a1.65,1.65,0,0,0-.569-.568l-16.655-9.993a1.666,1.666,0,0,0-2.523,1.427v19.986A1.665,1.665,0,0,0,174.546,563l16.655-9.993a1.666,1.666,0,0,0,.569-2.286Zm-16.415,7.91v-14.1l11.752,7.052Zm0,0" transform="translate(-108.38 -100.389)"/><g transform="translate(22 400.96)"><g class="b"><path class="a" d="M185.006,683.3a6.662,6.662,0,1,0-9.421-.117c.039.04.078.079.117.117a8.328,8.328,0,0,0-3.675,6.9v5a1.665,1.665,0,0,0,1.665,1.665h13.324a1.666,1.666,0,0,0,1.665-1.665v-5a8.331,8.331,0,0,0-3.676-6.9Zm-4.652-8.085a3.331,3.331,0,1,1-3.331,3.331,3.331,3.331,0,0,1,3.331-3.331Zm5,18.32h-9.993V690.2a5,5,0,1,1,9.993,0Zm0,0" transform="translate(-130.383 -596.671)"/><path class="a" d="M185.006,413.3a6.662,6.662,0,1,0-9.421-.117c.039.04.078.079.117.117a8.328,8.328,0,0,0-3.675,6.9v5a1.665,1.665,0,0,0,1.665,1.665h13.324a1.666,1.666,0,0,0,1.665-1.665v-5a8.331,8.331,0,0,0-3.676-6.9Zm-4.652-8.085a3.331,3.331,0,1,1-3.331,3.331,3.331,3.331,0,0,1,3.331-3.331Zm5,18.32h-9.993V420.2a5,5,0,1,1,9.993,0Zm0,0" transform="translate(-130.383 -401.617)"/></g></g><path class="a" d="M335.006,623.3a6.662,6.662,0,1,0-9.421-.117c.039.04.078.079.117.117a8.328,8.328,0,0,0-3.675,6.9v5a1.665,1.665,0,0,0,1.665,1.666h13.324a1.666,1.666,0,0,0,1.665-1.666v-5a8.331,8.331,0,0,0-3.676-6.9Zm-4.652-8.085a3.331,3.331,0,1,1-3.331,3.331,3.331,3.331,0,0,1,3.331-3.331Zm5,18.32h-9.993V630.2a5,5,0,1,1,9.993,0Zm0,0" transform="translate(-216.746 -152.366)"/><path class="a" d="M335.006,473.3a6.662,6.662,0,1,0-9.421-.117c.039.04.078.079.117.117a8.328,8.328,0,0,0-3.675,6.9v5a1.665,1.665,0,0,0,1.665,1.665h13.324a1.666,1.666,0,0,0,1.665-1.665v-5a8.331,8.331,0,0,0-3.676-6.9Zm-4.652-8.085a3.331,3.331,0,1,1-3.331,3.331,3.331,3.331,0,0,1,3.331-3.331Zm5,18.32h-9.993V480.2a5,5,0,1,1,9.993,0Zm0,0" transform="translate(-216.746 -44.002)"/><path class="a" d="M35.006,623.3a6.662,6.662,0,1,0-9.421-.117c.039.04.078.079.117.117a8.328,8.328,0,0,0-3.675,6.9v5a1.665,1.665,0,0,0,1.665,1.666H37.016a1.666,1.666,0,0,0,1.665-1.666v-5a8.331,8.331,0,0,0-3.676-6.9Zm-4.652-8.085a3.331,3.331,0,1,1-3.331,3.331,3.331,3.331,0,0,1,3.331-3.331Zm5,18.32H25.358V630.2a5,5,0,1,1,9.993,0Zm0,0" transform="translate(-0.02 -152.366)"/><path class="a" d="M35.006,473.3a6.662,6.662,0,1,0-9.421-.117c.039.04.078.079.117.117a8.328,8.328,0,0,0-3.675,6.9v5a1.665,1.665,0,0,0,1.665,1.665H37.016a1.666,1.666,0,0,0,1.665-1.665v-5a8.331,8.331,0,0,0-3.676-6.9Zm-4.652-8.085a3.331,3.331,0,1,1-3.331,3.331,3.331,3.331,0,0,1,3.331-3.331Zm5,18.32H25.358V480.2a5,5,0,0,1,9.993,0Zm0,0" transform="translate(-0.02 -44.002)"/></g></svg>